<?xml version="1.0" standalone="no"?>
<!DOCTYPE svg PUBLIC "-//W3C//DTD SVG 20010904//EN"
 "http://www.w3.org/TR/2001/REC-SVG-20010904/DTD/svg10.dtd">
<svg version="1.0" xmlns="http://www.w3.org/2000/svg"
 width="512.000000pt" height="512.000000pt" viewBox="0 0 512.000000 512.000000"
 preserveAspectRatio="xMidYMid meet">
<metadata>
Created by potrace 1.14, written by Peter Selinger 2001-2017
</metadata>
<g transform="translate(0.000000,512.000000) scale(0.100000,-0.100000)"
fill="#000000" stroke="none">
<path d="M748 4790 c-60 -11 -109 -51 -149 -121 -20 -35 -62 -109 -94 -164
-31 -55 -69 -121 -84 -146 -14 -25 -100 -175 -191 -332 -91 -158 -180 -314
-198 -348 l-32 -62 2 -1066 3 -1066 44 -75 c24 -41 55 -95 69 -120 14 -25 50
-88 80 -140 30 -52 64 -111 75 -130 107 -190 334 -583 353 -611 32 -47 93 -81
148 -81 126 0 210 107 182 231 -4 19 -272 495 -356 634 -11 18 -23 38 -27 46
-3 8 -51 90 -105 183 l-98 170 0 377 0 377 203 -1 c111 -1 204 -3 207 -4 3 0
5 -65 6 -144 1 -155 7 -179 61 -228 102 -94 271 -40 300 96 5 22 8 90 7 150 0
61 1 115 3 121 2 7 71 10 205 10 l202 -1 1 -75 c2 -109 13 -156 53 -240 60
-127 114 -171 431 -354 348 -201 353 -203 486 -213 87 -6 189 16 265 59 371
207 549 316 606 373 95 94 142 203 148 346 3 46 5 89 5 95 1 11 400 16 402 5
1 -3 2 -62 4 -131 2 -145 7 -173 42 -219 77 -101 242 -88 305 24 19 35 22 56
24 175 1 74 3 140 3 146 1 7 67 10 206 11 l205 0 0 -379 0 -378 -29 -47 c-15
-27 -91 -158 -169 -293 -77 -135 -148 -259 -158 -277 -11 -17 -48 -83 -84
-145 -35 -62 -72 -126 -82 -143 -73 -123 -85 -176 -55 -245 57 -133 240 -151
321 -31 27 41 286 490 286 497 0 2 12 23 27 47 15 23 33 51 39 63 6 11 69 121
140 245 l129 224 0 1075 0 1075 -106 185 c-214 371 -412 716 -432 750 -11 19
-32 57 -47 83 -54 97 -110 138 -190 139 -88 0 -164 -64 -180 -152 -8 -43 10
-105 51 -177 13 -23 87 -151 164 -284 77 -134 153 -266 169 -294 15 -27 68
-119 117 -203 l89 -154 0 -404 c0 -222 -3 -404 -7 -405 -31 -4 -1183 -3 -1184
1 0 3 -2 41 -4 85 -5 137 -33 221 -103 313 -64 85 -105 113 -582 384 -141 80
-203 100 -313 100 -114 0 -175 -22 -372 -137 -55 -31 -163 -94 -240 -138 -77
-44 -156 -92 -175 -106 -133 -98 -206 -253 -205 -433 0 -38 -4 -68 -10 -69
-33 -3 -1162 -4 -1173 -1 -9 3 -12 94 -12 408 l0 403 49 83 c43 74 321 558
390 678 14 25 53 92 85 149 67 117 78 158 59 222 -27 90 -114 145 -205 129z
m2389 -1808 c145 -75 131 -282 -22 -335 -32 -11 -145 -14 -565 -13 l-525 1
-43 25 c-109 62 -125 206 -33 294 52 50 70 51 627 50 510 -1 520 -1 561 -22z"/>
</g>
</svg>
